<?xml version="1.0" encoding="UTF-8"?>
<svg id="Layer_1" data-name="Layer 1" xmlns="http://www.w3.org/2000/svg" viewBox="0 0 1920 1080">
  <defs>
    <style>
      .cls-1 {
        letter-spacing: -.09em;
      }

      .cls-2 {
        letter-spacing: .8em;
      }

      .cls-3 {
        stroke-width: 0px;
      }

      .cls-3, .cls-4, .cls-5 {
        fill: #1d1d1b;
      }

      .cls-6 {
        letter-spacing: -.05em;
      }

      .cls-4 {
        font-size: 142.09px;
      }

      .cls-4, .cls-5 {
        font-family: AzonixRegular, Azonix;
      }

      .cls-7 {
        letter-spacing: -.05em;
      }

      .cls-5 {
        font-size: 44.89px;
      }

      .cls-8 {
        letter-spacing: .76em;
      }
    </style>
  </defs>
  <text class="cls-5" transform="translate(562.39 815.09)"><tspan class="cls-2" x="0" y="0">PRODU</tspan><tspan class="cls-8" x="350.63" y="0">C</tspan><tspan class="cls-2" x="420.03" y="0">CIONES</tspan></text>
  <text class="cls-4" transform="translate(124.55 732.85)"><tspan class="cls-7" x="0" y="0">HENDERSON </tspan><tspan class="cls-1" x="998.7" y="0">V</tspan><tspan class="cls-6" x="1089.78" y="0">ERGARA</tspan></text>
  <g>
    <path class="cls-3" d="M932.87,374.32c-6.35,12.58-6.67,24.63-1.74,36.88.25.61,1.15,1.35,1.77,1.37,6.95.26,13.91.38,21.37.56-7.24-13.12-14.17-25.68-21.41-38.8Z"/>
    <path class="cls-3" d="M979.62,420.52c-14.84-.24-29.19-.48-43.67-.72.08.59.06.7.1.76,7.28,11.41,17.88,17.45,31.1,19.19.55.07,1.43-.63,1.79-1.2,2.38-3.81,4.67-7.67,6.96-11.53,1.22-2.05,2.37-4.15,3.72-6.5Z"/>
    <path class="cls-3" d="M947,388.42c7.63-12.84,14.93-25.11,22.55-37.94-2.2.06-3.68-.11-5.07.17-10.7,2.18-19.97,6.86-26.73,15.71-.61.8-1.12,2.38-.74,3.13,3.09,6.16,6.4,12.2,9.99,18.92Z"/>
    <path class="cls-3" d="M998.45,400.9c-7.74,12.88-15.18,25.26-22.86,38.03,2.37-.21,4.31-.29,6.2-.58,11.03-1.68,19.56-7.51,26.33-16.14.49-.62.97-1.84.69-2.37-3.29-6.21-6.73-12.35-10.36-18.93Z"/>
    <path class="cls-3" d="M983.15,350.04c-5.04-1.24-5.21-1.23-7.98,3.05-3.17,4.9-6.05,9.98-9.32,15.44,14.93.27,29.33.52,44.09.78-.45-.92-.62-1.45-.92-1.87-6.45-9.03-15.14-14.77-25.87-17.4Z"/>
    <path class="cls-3" d="M1007.39,376.33c-5.27-.07-10.55-.13-16.11-.2,7.1,12.89,14.01,25.41,21.19,38.45.76-1.14,1.13-1.56,1.35-2.05,4.43-9.95,5.34-20.1,1.95-30.58-1.72-5.32-1.6-5.36-7.29-5.52-.37-.01-.73-.09-1.1-.1Z"/>
    <path class="cls-3" d="M1048.87,455.89l-14.79-14.79c1.92-4.03,3-8.54,3-13.3v-66.41c0-4.76-1.08-9.26-3-13.3l14.79-14.79c9.79,6.74,21.21,10.13,32.64,10.13,50.93,0,77.03-61.94,40.71-98.26-22.45-22.45-58.98-22.45-81.42,0-19.92,19.92-22.15,50.93-6.71,73.35l-14.79,14.79c-4.03-1.92-8.54-3-13.3-3h-66.41c-4.76,0-9.27,1.08-13.3,3l-14.79-14.79c15.44-22.42,13.22-53.42-6.71-73.35-22.45-22.45-58.98-22.45-81.43,0-22.45,22.45-22.45,58.98,0,81.42,20,20,50.98,22.11,73.35,6.71l14.79,14.79c-1.92,4.03-3,8.54-3,13.3v66.41c0,4.76,1.08,9.26,3,13.3l-14.79,14.79c-22.42-15.44-53.42-13.22-73.35,6.71-36.3,36.3-10.24,98.26,40.71,98.26,46.62,0,73.44-52.4,47.42-90.19l14.79-14.79c4.03,1.92,8.54,3,13.3,3h66.41c4.76,0,9.26-1.08,13.3-3l14.79,14.79c-15.44,22.42-13.22,53.42,6.71,73.35,22.45,22.45,58.98,22.45,81.42,0,22.45-22.45,22.45-58.98,0-81.42-19.92-19.92-50.93-22.15-73.35-6.71ZM1055.57,259.95c14.3-14.3,37.56-14.3,51.86,0,14.3,14.3,14.3,37.56,0,51.86-11.73,11.73-29.49,13.83-43.39,6.31l24.85-24.85c4.08-4.08,4.08-10.7,0-14.78-4.08-4.08-10.7-4.08-14.78,0l-24.85,24.85c-7.52-13.9-5.42-31.66,6.31-43.39ZM896.31,303.34l-24.85-24.85c-4.08-4.08-10.7-4.08-14.78,0-4.08,4.08-4.08,10.7,0,14.78l24.85,24.85c-13.9,7.52-31.66,5.42-43.39-6.31-14.3-14.3-14.3-37.56,0-51.86,14.3-14.3,37.56-14.3,51.86,0,11.73,11.73,13.83,29.49,6.31,43.39ZM890,529.24c-14.3,14.3-37.56,14.3-51.86,0-14.3-14.3-14.3-37.56,0-51.86,11.75-11.75,29.5-13.82,43.39-6.31l-24.85,24.85c-4.08,4.08-4.08,10.7,0,14.78,4.08,4.08,10.7,4.08,14.78,0l24.85-24.85c7.52,13.9,5.42,31.66-6.31,43.39ZM972.79,446.68c-28.77,0-52.09-23.32-52.09-52.09s23.32-52.09,52.09-52.09,52.09,23.32,52.09,52.09-23.32,52.09-52.09,52.09ZM1107.43,529.24c-14.3,14.3-37.56,14.3-51.86,0-11.73-11.73-13.83-29.49-6.31-43.39l24.85,24.85c2.04,2.04,4.72,3.06,7.39,3.06,9.23,0,14-11.24,7.39-17.84l-24.85-24.85c5.43-2.94,11.44-4.41,17.46-4.41,32.44,0,49.06,39.45,25.93,62.58Z"/>
  </g>
</svg>