<?xml version="1.0" encoding="UTF-8"?>
<svg id="Layer_1" data-name="Layer 1" xmlns="http://www.w3.org/2000/svg" viewBox="0 0 1697.9 211.23">
  <defs>
    <style>
      .cls-1 {
        fill: #1d1d1b;
        stroke-width: 0px;
      }
    </style>
  </defs>
  <g>
    <path class="cls-1" d="M465.93,174.15c1.53,1.53,2.47,3.64,2.47,5.97,0,3.41-2.02,6.37-4.94,7.72-.76.36-1.57.58-2.42.67h-.27v.04h-15.04v14.46h-5.61v-31.42h19.8c2.33,0,4.44.94,5.97,2.47l.04.09ZM461.13,182.72c1.03-.45,1.71-1.48,1.71-2.6,0-1.03-.54-1.75-.85-2.07-.36-.36-1.03-.81-2.02-.81h-14.23v5.79h14.23c.4,0,.81-.09,1.17-.27v-.04Z"/>
    <path class="cls-1" d="M534.13,197.44l2.87,5.61h-6.29l-2.87-5.61-3.01-5.88-.13-.27c-.99-1.62-2.74-2.69-4.76-2.69h-5.61v14.46h-5.61v-31.42h19.84c2.33,0,4.44.94,5.97,2.47,1.53,1.57,2.47,3.68,2.47,6.02,0,3.41-2.02,6.37-4.94,7.72-.76.36-1.57.58-2.42.67l4.49,8.93ZM528.56,182.99c.4,0,.81-.09,1.17-.27,1.03-.45,1.71-1.48,1.71-2.6,0-1.03-.54-1.75-.85-2.07-.36-.36-1.03-.81-2.02-.81h-14.23v5.79l14.23-.04Z"/>
    <path class="cls-1" d="M607.75,187.3c0,8.66-7.05,15.71-15.71,15.71s-15.71-7.05-15.71-15.71,7.05-15.71,15.71-15.71,15.71,7.05,15.71,15.71ZM602.14,187.3c0-5.57-4.53-10.1-10.1-10.1s-10.1,4.53-10.1,10.1,4.53,10.1,10.1,10.1,10.1-4.53,10.1-10.1Z"/>
    <path class="cls-1" d="M662.71,171.63c8.66,0,15.71,7,15.71,15.67,0,3.86-1.39,7.41-3.73,10.15-.27.31-.58.63-.9.94-2.83,2.87-6.73,4.62-11.04,4.62h-15.71v-31.42l15.67.04ZM652.61,197.44h10.1c5.57,0,10.1-4.53,10.1-10.1s-4.53-10.1-10.1-10.1h-10.1v20.2Z"/>
    <path class="cls-1" d="M750.29,171.59v15.71c0,8.66-7.05,15.71-15.71,15.71s-15.71-7.05-15.71-15.71v-15.71h5.61v15.71c0,5.57,4.53,10.1,10.1,10.1s10.1-4.53,10.1-10.1v-15.71h5.61Z"/>
    <path class="cls-1" d="M795.86,187.3c0,5.57,4.53,10.1,10.1,10.1h15.71v5.61h-15.71c-8.66,0-15.71-7.05-15.71-15.71s7.05-15.71,15.71-15.71h15.71v5.61h-15.71c-5.57,0-10.1,4.53-10.1,10.1Z"/>
    <path class="cls-1" d="M865.27,187.3c0,5.57,4.53,10.1,10.1,10.1h15.71v5.61h-15.71c-8.66,0-15.71-7.05-15.71-15.71s7.05-15.71,15.71-15.71h15.71v5.61h-15.71c-5.57,0-10.1,4.53-10.1,10.1Z"/>
    <path class="cls-1" d="M931.49,203.01v-31.42h5.61v31.42h-5.61Z"/>
    <path class="cls-1" d="M1007.81,187.3c0,8.66-7.05,15.71-15.71,15.71s-15.71-7.05-15.71-15.71,7.05-15.71,15.71-15.71,15.71,7.05,15.71,15.71ZM1002.2,187.3c0-5.57-4.53-10.1-10.1-10.1s-10.1,4.53-10.1,10.1,4.53,10.1,10.1,10.1,10.1-4.53,10.1-10.1Z"/>
    <path class="cls-1" d="M1078.52,171.63v31.42l-5.61-4.31-20.2-15.58v19.89h-5.61v-31.33l5.61,4.31,20.2,15.58v-20.02l5.61.04Z"/>
    <path class="cls-1" d="M1124.54,180.07v2.92h20.2v5.61h-20.2v5.93c0,1.57,1.3,2.87,2.87,2.87h22.94v5.61h-22.94c-4.67,0-8.44-3.82-8.44-8.48v-14.46c0-4.67,3.77-8.48,8.44-8.48h22.94v5.61h-22.94c-1.57,0-2.87,1.3-2.87,2.87Z"/>
    <path class="cls-1" d="M1214.86,180.3v-.18c0-1.57-1.3-2.87-2.87-2.87h-12.75c-1.57,0-2.87,1.3-2.87,2.87v.18c0,1.57,1.3,2.87,2.87,2.87h11.31c2.92,0,5.52,1.26,7.32,3.23.13.13.22.27.36.4,1.39,1.71,2.25,3.91,2.25,6.29,0,5.48-4.44,9.92-9.92,9.92h-9.83c-5.48,0-9.92-4.44-9.92-9.92h5.61c0,2.38,1.93,4.31,4.31,4.31h9.83c2.38,0,4.35-1.93,4.35-4.31s-1.98-4.31-4.35-4.31h-11.31c-2.29,0-4.35-.9-5.88-2.38-.4-.4-.76-.85-1.08-1.35-.94-1.35-1.48-3.01-1.48-4.8v-.18c0-4.67,3.77-8.48,8.44-8.48h12.75c4.67,0,8.48,3.82,8.48,8.48v.18l-5.61.04Z"/>
  </g>
  <g>
    <path class="cls-1" d="M106.57,21.31v99.46h-17.76v-45.61H24.87v45.61H7.1V21.31h17.76v36.09h63.94V21.31h17.76Z"/>
    <path class="cls-1" d="M131.43,48.16v9.24h63.94v17.76h-63.94v18.76c0,4.97,4.12,9.09,9.09,9.09h72.61v17.76h-72.61c-14.78,0-26.71-12.08-26.71-26.86v-45.75c0-14.78,11.94-26.86,26.71-26.86h72.61v17.76h-72.61c-4.97,0-9.09,4.12-9.09,9.09Z"/>
    <path class="cls-1" d="M319.69,21.45v99.46l-17.76-13.64-63.94-49.31v62.95h-17.76V21.73l17.76,13.64,63.94,49.31V21.31l17.76.14Z"/>
    <path class="cls-1" d="M376.38,21.45c27.42,0,49.73,22.17,49.73,49.59,0,12.22-4.4,23.44-11.79,32.11-.85.99-1.85,1.99-2.84,2.98-8.95,9.09-21.31,14.63-34.95,14.63h-49.73V21.31l49.59.14ZM344.41,103.15h31.97c17.62,0,31.97-14.35,31.97-31.97s-14.35-31.97-31.97-31.97h-31.97v63.94Z"/>
    <path class="cls-1" d="M451.11,48.16v9.24h63.94v17.76h-63.94v18.76c0,4.97,4.12,9.09,9.09,9.09h72.61v17.76h-72.61c-14.78,0-26.71-12.08-26.71-26.86v-45.75c0-14.78,11.94-26.86,26.71-26.86h72.61v17.76h-72.61c-4.97,0-9.09,4.12-9.09,9.09Z"/>
    <path class="cls-1" d="M620.2,103.15l9.09,17.76h-19.89l-9.09-17.76-9.52-18.61-.43-.85c-3.13-5.12-8.67-8.53-15.06-8.53h-17.76v45.75h-17.76V21.45h62.8c7.39,0,14.07,2.98,18.9,7.81,4.83,4.97,7.81,11.65,7.81,19.04,0,10.8-6.39,20.18-15.63,24.44-2.42,1.14-4.97,1.85-7.67,2.13l14.21,28.28ZM602.58,57.4c1.28,0,2.56-.28,3.69-.85,3.27-1.42,5.4-4.69,5.4-8.24,0-3.27-1.71-5.54-2.7-6.54-1.14-1.14-3.27-2.56-6.39-2.56h-45.04v18.33l45.04-.14Z"/>
    <path class="cls-1" d="M712.83,48.87v-.57c0-4.97-4.12-9.09-9.09-9.09h-40.35c-4.97,0-9.09,4.12-9.09,9.09v.57c0,4.97,4.12,9.09,9.09,9.09h35.81c9.24,0,17.48,3.98,23.16,10.23.43.43.71.85,1.14,1.28,4.4,5.4,7.1,12.36,7.1,19.89,0,17.34-14.07,31.4-31.4,31.4h-31.12c-17.33,0-31.4-14.07-31.4-31.4h17.76c0,7.53,6.11,13.64,13.64,13.64h31.12c7.53,0,13.78-6.11,13.78-13.64s-6.25-13.64-13.78-13.64h-35.81c-7.25,0-13.78-2.84-18.61-7.53-1.28-1.28-2.42-2.7-3.41-4.26-2.98-4.26-4.69-9.52-4.69-15.2v-.57c0-14.78,11.94-26.86,26.71-26.86h40.35c14.78,0,26.85,12.08,26.85,26.86v.57l-17.76.14Z"/>
    <path class="cls-1" d="M833.61,71.04c0,27.42-22.31,49.73-49.73,49.73s-49.73-22.31-49.73-49.73,22.31-49.73,49.73-49.73,49.73,22.31,49.73,49.73ZM815.85,71.04c0-17.62-14.35-31.97-31.97-31.97s-31.97,14.35-31.97,31.97,14.35,31.97,31.97,31.97,31.97-14.35,31.97-31.97Z"/>
    <path class="cls-1" d="M936.62,21.45v99.46l-17.76-13.64-63.94-49.31v62.95h-17.76V21.73l17.76,13.64,63.94,49.31V21.31l17.76.14Z"/>
    <path class="cls-1" d="M1101.58,21.31l-9.09,17.76-41.63,81.7-41.63-81.7-9.09-17.76h19.89l9.09,17.76,21.74,42.63,21.74-42.63,9.09-17.76h19.89Z"/>
    <path class="cls-1" d="M1114.65,48.16v9.24h63.94v17.76h-63.94v18.76c0,4.97,4.12,9.09,9.09,9.09h72.61v17.76h-72.61c-14.78,0-26.71-12.08-26.71-26.86v-45.75c0-14.78,11.94-26.86,26.71-26.86h72.61v17.76h-72.61c-4.97,0-9.09,4.12-9.09,9.09Z"/>
    <path class="cls-1" d="M1283.73,103.15l9.09,17.76h-19.89l-9.09-17.76-9.52-18.61-.43-.85c-3.13-5.12-8.67-8.53-15.06-8.53h-17.76v45.75h-17.76V21.45h62.8c7.39,0,14.07,2.98,18.9,7.81,4.83,4.97,7.81,11.65,7.81,19.04,0,10.8-6.39,20.18-15.63,24.44-2.42,1.14-4.97,1.85-7.67,2.13l14.21,28.28ZM1266.11,57.4c1.28,0,2.56-.28,3.7-.85,3.27-1.42,5.4-4.69,5.4-8.24,0-3.27-1.71-5.54-2.7-6.54-1.14-1.14-3.27-2.56-6.39-2.56h-45.04v18.33l45.04-.14Z"/>
    <path class="cls-1" d="M1317.82,71.04c0,17.62,14.35,31.97,31.97,31.97h31.97v-19.04h-31.97v-17.76h49.73v54.56h-49.73c-27.42,0-49.73-22.31-49.73-49.73s22.31-49.73,49.73-49.73h49.73v17.76h-49.73c-17.62,0-31.97,14.35-31.97,31.97Z"/>
    <path class="cls-1" d="M1502.54,120.77h-19.89l-9.09-17.76-21.74-42.63-21.74,42.63-9.09,17.76h-19.89l9.09-17.76,41.63-81.7,41.63,81.7,9.09,17.76Z"/>
    <path class="cls-1" d="M1584.23,103.15l9.09,17.76h-19.89l-9.09-17.76-9.52-18.61-.43-.85c-3.13-5.12-8.67-8.53-15.06-8.53h-17.76v45.75h-17.76V21.45h62.8c7.39,0,14.07,2.98,18.9,7.81,4.83,4.97,7.81,11.65,7.81,19.04,0,10.8-6.39,20.18-15.63,24.44-2.42,1.14-4.97,1.85-7.67,2.13l14.21,28.28ZM1566.61,57.4c1.28,0,2.56-.28,3.7-.85,3.27-1.42,5.4-4.69,5.4-8.24,0-3.27-1.71-5.54-2.7-6.54-1.14-1.14-3.27-2.56-6.39-2.56h-45.04v18.33l45.04-.14Z"/>
    <path class="cls-1" d="M1696.48,120.77h-19.89l-9.09-17.76-21.74-42.63-21.74,42.63-9.09,17.76h-19.89l9.09-17.76,41.63-81.7,41.63,81.7,9.09,17.76Z"/>
  </g>
</svg>