<?xml version="1.0" encoding="UTF-8"?>
<svg id="Layer_1" data-name="Layer 1" xmlns="http://www.w3.org/2000/svg" viewBox="0 0 1697.89 146.77">
  <defs>
    <style>
      .cls-1 {
        fill: #fff;
        stroke-width: 0px;
      }
    </style>
  </defs>
  <path class="cls-1" d="M106.57,21.31v99.46h-17.76v-45.61H24.87v45.61H7.1V21.31h17.76v36.09h63.94V21.31h17.76Z"/>
  <path class="cls-1" d="M131.43,48.16v9.24h63.94v17.76h-63.94v18.76c0,4.97,4.12,9.09,9.09,9.09h72.61v17.76h-72.61c-14.78,0-26.71-12.08-26.71-26.86v-45.75c0-14.78,11.94-26.86,26.71-26.86h72.61v17.76h-72.61c-4.97,0-9.09,4.12-9.09,9.09Z"/>
  <path class="cls-1" d="M319.69,21.45v99.46l-17.76-13.64-63.94-49.3v62.95h-17.76V21.73l17.76,13.64,63.94,49.31V21.31l17.76.14Z"/>
  <path class="cls-1" d="M376.38,21.45c27.42,0,49.73,22.17,49.73,49.59,0,12.22-4.4,23.44-11.79,32.11-.85.99-1.85,1.99-2.84,2.98-8.95,9.09-21.31,14.63-34.96,14.63h-49.73V21.31l49.59.14ZM344.41,103.15h31.97c17.62,0,31.97-14.35,31.97-31.97s-14.35-31.97-31.97-31.97h-31.97v63.94Z"/>
  <path class="cls-1" d="M451.11,48.16v9.24h63.94v17.76h-63.94v18.76c0,4.97,4.12,9.09,9.09,9.09h72.61v17.76h-72.61c-14.78,0-26.71-12.08-26.71-26.86v-45.75c0-14.78,11.94-26.86,26.71-26.86h72.61v17.76h-72.61c-4.97,0-9.09,4.12-9.09,9.09Z"/>
  <path class="cls-1" d="M620.2,103.15l9.09,17.76h-19.89l-9.09-17.76-9.52-18.61-.43-.85c-3.13-5.12-8.67-8.53-15.06-8.53h-17.76v45.75h-17.76V21.45h62.8c7.39,0,14.07,2.98,18.9,7.81,4.83,4.97,7.81,11.65,7.81,19.04,0,10.8-6.39,20.18-15.63,24.44-2.42,1.14-4.97,1.85-7.67,2.13l14.21,28.28ZM602.58,57.4c1.28,0,2.56-.29,3.69-.85,3.27-1.42,5.4-4.69,5.4-8.24,0-3.27-1.71-5.54-2.7-6.54-1.14-1.14-3.27-2.56-6.39-2.56h-45.04v18.33l45.04-.14Z"/>
  <path class="cls-1" d="M712.83,48.88v-.57c0-4.97-4.12-9.09-9.09-9.09h-40.35c-4.97,0-9.09,4.12-9.09,9.09v.57c0,4.97,4.12,9.09,9.09,9.09h35.81c9.24,0,17.48,3.98,23.16,10.23.43.43.71.85,1.14,1.28,4.41,5.4,7.11,12.36,7.11,19.89,0,17.34-14.07,31.4-31.4,31.4h-31.12c-17.34,0-31.4-14.07-31.4-31.4h17.76c0,7.53,6.11,13.64,13.64,13.64h31.12c7.53,0,13.78-6.11,13.78-13.64s-6.25-13.64-13.78-13.64h-35.81c-7.25,0-13.78-2.84-18.61-7.53-1.28-1.28-2.42-2.7-3.41-4.26-2.98-4.26-4.69-9.52-4.69-15.2v-.57c0-14.78,11.94-26.86,26.71-26.86h40.35c14.78,0,26.86,12.08,26.86,26.86v.57l-17.76.14Z"/>
  <path class="cls-1" d="M833.61,71.04c0,27.42-22.31,49.73-49.73,49.73s-49.73-22.31-49.73-49.73,22.31-49.73,49.73-49.73,49.73,22.31,49.73,49.73ZM815.85,71.04c0-17.62-14.35-31.97-31.97-31.97s-31.97,14.35-31.97,31.97,14.35,31.97,31.97,31.97,31.97-14.35,31.97-31.97Z"/>
  <path class="cls-1" d="M936.62,21.45v99.46l-17.76-13.64-63.94-49.3v62.95h-17.76V21.73l17.76,13.64,63.94,49.31V21.31l17.76.14Z"/>
  <path class="cls-1" d="M1101.58,21.31l-9.09,17.76-41.63,81.7-41.63-81.7-9.09-17.76h19.89l9.09,17.76,21.74,42.63,21.74-42.63,9.09-17.76h19.89Z"/>
  <path class="cls-1" d="M1114.64,48.16v9.24h63.94v17.76h-63.94v18.76c0,4.97,4.12,9.09,9.09,9.09h72.61v17.76h-72.61c-14.78,0-26.71-12.08-26.71-26.86v-45.75c0-14.78,11.94-26.86,26.71-26.86h72.61v17.76h-72.61c-4.97,0-9.09,4.12-9.09,9.09Z"/>
  <path class="cls-1" d="M1283.73,103.15l9.09,17.76h-19.89l-9.09-17.76-9.52-18.61-.43-.85c-3.13-5.12-8.67-8.53-15.06-8.53h-17.76v45.75h-17.76V21.45h62.8c7.39,0,14.07,2.98,18.9,7.81,4.83,4.97,7.81,11.65,7.81,19.04,0,10.8-6.39,20.18-15.63,24.44-2.42,1.14-4.97,1.85-7.67,2.13l14.21,28.28ZM1266.11,57.4c1.28,0,2.56-.29,3.7-.85,3.27-1.42,5.4-4.69,5.4-8.24,0-3.27-1.71-5.54-2.7-6.54-1.14-1.14-3.27-2.56-6.39-2.56h-45.04v18.33l45.04-.14Z"/>
  <path class="cls-1" d="M1317.82,71.04c0,17.62,14.35,31.97,31.97,31.97h31.97v-19.04h-31.97v-17.76h49.73v54.56h-49.73c-27.42,0-49.73-22.31-49.73-49.73s22.31-49.73,49.73-49.73h49.73v17.76h-49.73c-17.62,0-31.97,14.35-31.97,31.97Z"/>
  <path class="cls-1" d="M1502.54,120.77h-19.89l-9.09-17.76-21.74-42.63-21.74,42.63-9.09,17.76h-19.89l9.09-17.76,41.63-81.7,41.63,81.7,9.09,17.76Z"/>
  <path class="cls-1" d="M1584.23,103.15l9.09,17.76h-19.89l-9.09-17.76-9.52-18.61-.43-.85c-3.13-5.12-8.67-8.53-15.06-8.53h-17.76v45.75h-17.76V21.45h62.8c7.39,0,14.07,2.98,18.9,7.81,4.83,4.97,7.81,11.65,7.81,19.04,0,10.8-6.39,20.18-15.63,24.44-2.42,1.14-4.97,1.85-7.67,2.13l14.21,28.28ZM1566.61,57.4c1.28,0,2.56-.29,3.7-.85,3.27-1.42,5.4-4.69,5.4-8.24,0-3.27-1.71-5.54-2.7-6.54-1.14-1.14-3.27-2.56-6.39-2.56h-45.04v18.33l45.04-.14Z"/>
  <path class="cls-1" d="M1696.48,120.77h-19.89l-9.09-17.76-21.74-42.63-21.74,42.63-9.09,17.76h-19.89l9.09-17.76,41.63-81.7,41.63,81.7,9.09,17.76Z"/>
</svg>