<?xml version="1.0" encoding="UTF-8"?>
<svg id="Layer_2_copy" data-name="Layer 2 copy" xmlns="http://www.w3.org/2000/svg" viewBox="0 0 809 809">
  <defs>
    <style>
      .cls-1 {
        fill: #fff;
        stroke-width: 0px;
      }
    </style>
  </defs>
  <path class="cls-1" d="M344.48,374.02c-9.55,18.92-10.03,37.03-2.61,55.45.37.92,1.73,2.02,2.66,2.06,10.45.38,20.91.57,32.14.83-10.88-19.72-21.3-38.61-32.19-58.34Z"/>
  <path class="cls-1" d="M414.78,443.48c-22.31-.37-43.88-.72-65.67-1.08.12.89.09,1.05.15,1.15,10.94,17.15,26.89,26.23,46.77,28.85.82.11,2.15-.95,2.69-1.81,3.58-5.73,7.03-11.53,10.47-17.34,1.83-3.09,3.57-6.23,5.59-9.78Z"/>
  <path class="cls-1" d="M365.73,395.22c11.48-19.31,22.45-37.76,33.91-57.04-3.31.09-5.53-.17-7.62.26-16.08,3.28-30.03,10.31-40.2,23.63-.92,1.2-1.68,3.58-1.11,4.7,4.65,9.26,9.63,18.35,15.02,28.45Z"/>
  <path class="cls-1" d="M443.09,413.98c-11.64,19.37-22.83,37.98-34.37,57.18,3.57-.32,6.47-.43,9.33-.87,16.59-2.53,29.41-11.29,39.59-24.28.73-.93,1.46-2.77,1.03-3.57-4.94-9.34-10.11-18.57-15.58-28.47Z"/>
  <path class="cls-1" d="M420.09,337.51c-7.58-1.86-7.84-1.85-12,4.59-4.76,7.36-9.09,15-14.02,23.21,22.45.4,44.1.78,66.3,1.18-.67-1.39-.92-2.18-1.38-2.82-9.69-13.58-22.76-22.21-38.89-26.16Z"/>
  <path class="cls-1" d="M456.54,377.04c-7.93-.11-15.86-.2-24.22-.3,10.68,19.38,21.06,38.21,31.87,57.82,1.14-1.72,1.7-2.35,2.03-3.08,6.66-14.96,8.04-30.23,2.94-45.98-2.59-7.99-2.41-8.05-10.96-8.3-.55-.02-1.1-.14-1.66-.15Z"/>
  <path class="cls-1" d="M518.89,496.67l-22.24-22.24c2.88-6.07,4.5-12.84,4.5-20v-99.86c0-7.15-1.62-13.93-4.5-20l22.24-22.24c14.72,10.14,31.89,15.23,49.07,15.23,76.58,0,115.82-93.14,61.21-147.75-33.75-33.76-88.68-33.76-122.43,0-29.96,29.96-33.3,76.58-10.08,110.29l-22.24,22.24c-6.07-2.88-12.84-4.5-20-4.5h-99.86c-7.15,0-13.93,1.62-20,4.5l-22.24-22.24c23.22-33.71,19.87-80.33-10.08-110.29-33.75-33.76-88.68-33.75-122.43,0-33.75,33.75-33.75,88.68,0,122.43,30.07,30.07,76.66,33.25,110.29,10.09l22.24,22.24c-2.88,6.07-4.5,12.84-4.5,20v99.86c0,7.15,1.62,13.93,4.5,20l-22.24,22.24c-33.71-23.22-80.33-19.87-110.29,10.09-54.58,54.58-15.4,147.75,61.22,147.75,70.1,0,110.43-78.79,71.3-135.6l22.24-22.24c6.07,2.88,12.84,4.5,20,4.5h99.86c7.15,0,13.93-1.62,20-4.5l22.24,22.24c-23.22,33.71-19.87,80.33,10.08,110.29,33.75,33.75,88.68,33.76,122.43,0,33.75-33.75,33.75-88.68,0-122.43-29.96-29.96-76.58-33.31-110.29-10.09ZM528.98,202.04c21.5-21.5,56.48-21.5,77.98,0,21.5,21.5,21.5,56.48,0,77.98-17.64,17.64-44.34,20.79-65.24,9.49l37.36-37.36c6.14-6.14,6.14-16.09,0-22.23-6.14-6.14-16.09-6.14-22.23,0l-37.36,37.36c-11.3-20.9-8.15-47.6,9.49-65.24ZM289.51,267.28l-37.36-37.36c-6.14-6.14-16.09-6.14-22.23,0-6.14,6.14-6.14,16.09,0,22.23l37.36,37.36c-20.9,11.3-47.6,8.14-65.24-9.49-21.5-21.5-21.5-56.48,0-77.98,21.5-21.5,56.48-21.5,77.97,0,17.63,17.64,20.79,44.34,9.49,65.24ZM280.02,606.95c-21.5,21.5-56.48,21.5-77.97,0-21.5-21.5-21.5-56.48,0-77.98,17.67-17.67,44.35-20.78,65.24-9.49l-37.36,37.36c-6.14,6.14-6.14,16.09,0,22.23,6.14,6.14,16.09,6.14,22.23,0l37.36-37.36c11.3,20.9,8.15,47.6-9.49,65.24ZM404.5,482.82c-43.25,0-78.32-35.06-78.32-78.32s35.07-78.32,78.32-78.32,78.32,35.06,78.32,78.32-35.06,78.32-78.32,78.32ZM606.95,606.95c-21.5,21.5-56.48,21.5-77.98,0-17.64-17.64-20.79-44.34-9.49-65.24l37.36,37.37c3.07,3.07,7.09,4.6,11.11,4.6,13.88,0,21.05-16.9,11.11-26.83l-37.36-37.36c8.16-4.41,17.2-6.63,26.25-6.63,48.78,0,73.77,59.32,38.99,94.1Z"/>
</svg>