<?xml version="1.0" encoding="UTF-8"?>
<svg xmlns="http://www.w3.org/2000/svg" version="1.1" viewBox="0 0 809 809">
  <defs>
    <style>
      .cls-1 {
        fill: #fff;
      }

      .cls-2 {
        fill: #1d1d1b;
      }
    </style>
  </defs>
  <!-- Generator: Adobe Illustrator 28.7.1, SVG Export Plug-In . SVG Version: 1.2.0 Build 142)  -->
  <g>
    <g id="Layer_2">
      <rect class="cls-1" width="809" height="809"/>
      <path class="cls-2" d="M344.6,374c-9.5,18.9-10,37-2.6,55.5.4.9,1.7,2,2.7,2.1,10.5.4,20.9.6,32.1.8-10.9-19.7-21.3-38.6-32.2-58.3h0Z"/>
      <path class="cls-2" d="M414.9,443.5c-22.3-.4-43.9-.7-65.7-1.1.1.9,0,1,.1,1.1,10.9,17.1,26.9,26.2,46.8,28.9.8.1,2.1-1,2.7-1.8,3.6-5.7,7-11.5,10.5-17.3,1.8-3.1,3.6-6.2,5.6-9.8h0Z"/>
      <path class="cls-2" d="M365.9,395.2c11.5-19.3,22.5-37.8,33.9-57-3.3,0-5.5-.2-7.6.3-16.1,3.3-30,10.3-40.2,23.6-.9,1.2-1.7,3.6-1.1,4.7,4.6,9.3,9.6,18.4,15,28.5h0Z"/>
      <path class="cls-2" d="M443.2,414c-11.6,19.4-22.8,38-34.4,57.2,3.6-.3,6.5-.4,9.3-.9,16.6-2.5,29.4-11.3,39.6-24.3.7-.9,1.5-2.8,1-3.6-4.9-9.3-10.1-18.6-15.6-28.5h0Z"/>
      <path class="cls-2" d="M420.2,337.5c-7.6-1.9-7.8-1.9-12,4.6-4.8,7.4-9.1,15-14,23.2,22.5.4,44.1.8,66.3,1.2-.7-1.4-.9-2.2-1.4-2.8-9.7-13.6-22.8-22.2-38.9-26.2h0Z"/>
      <path class="cls-2" d="M456.7,377c-7.9-.1-15.9-.2-24.2-.3,10.7,19.4,21.1,38.2,31.9,57.8,1.1-1.7,1.7-2.4,2-3.1,6.7-15,8-30.2,2.9-46-2.6-8-2.4-8-11-8.3-.5,0-1.1-.1-1.7-.1h0Z"/>
      <path class="cls-2" d="M519,496.7l-22.2-22.2c2.9-6.1,4.5-12.8,4.5-20v-99.9c0-7.1-1.6-13.9-4.5-20l22.2-22.2c14.7,10.1,31.9,15.2,49.1,15.2,76.6,0,115.8-93.1,61.2-147.8-33.8-33.8-88.7-33.8-122.4,0-30,30-33.3,76.6-10.1,110.3l-22.2,22.2c-6.1-2.9-12.8-4.5-20-4.5h-99.9c-7.1,0-13.9,1.6-20,4.5l-22.2-22.2c23.2-33.7,19.9-80.3-10.1-110.3-33.8-33.8-88.7-33.8-122.4,0s-33.8,88.7,0,122.4,76.7,33.2,110.3,10.1l22.2,22.2c-2.9,6.1-4.5,12.8-4.5,20v99.9c0,7.1,1.6,13.9,4.5,20l-22.2,22.2c-33.7-23.2-80.3-19.9-110.3,10.1-54.6,54.6-15.4,147.8,61.2,147.8s110.4-78.8,71.3-135.6l22.2-22.2c6.1,2.9,12.8,4.5,20,4.5h99.9c7.1,0,13.9-1.6,20-4.5l22.2,22.2c-23.2,33.7-19.9,80.3,10.1,110.3,33.7,33.8,88.7,33.8,122.4,0,33.8-33.8,33.8-88.7,0-122.4-30-30-76.6-33.3-110.3-10.1h0ZM529.1,202c21.5-21.5,56.5-21.5,78,0s21.5,56.5,0,78c-17.6,17.6-44.3,20.8-65.2,9.5l37.4-37.4c6.1-6.1,6.1-16.1,0-22.2s-16.1-6.1-22.2,0l-37.4,37.4c-11.3-20.9-8.1-47.6,9.5-65.2h0ZM289.6,267.3l-37.4-37.4c-6.1-6.1-16.1-6.1-22.2,0s-6.1,16.1,0,22.2l37.4,37.4c-20.9,11.3-47.6,8.1-65.2-9.5-21.5-21.5-21.5-56.5,0-78,21.5-21.5,56.5-21.5,78,0,17.6,17.6,20.8,44.3,9.5,65.2h0ZM280.1,607c-21.5,21.5-56.5,21.5-78,0-21.5-21.5-21.5-56.5,0-78,17.7-17.7,44.4-20.8,65.2-9.5l-37.4,37.4c-6.1,6.1-6.1,16.1,0,22.2,6.1,6.1,16.1,6.1,22.2,0l37.4-37.4c11.3,20.9,8.1,47.6-9.5,65.2h0ZM404.6,482.8c-43.2,0-78.3-35.1-78.3-78.3s35.1-78.3,78.3-78.3,78.3,35.1,78.3,78.3-35.1,78.3-78.3,78.3ZM607.1,607c-21.5,21.5-56.5,21.5-78,0s-20.8-44.3-9.5-65.2l37.4,37.4c3.1,3.1,7.1,4.6,11.1,4.6,13.9,0,21-16.9,11.1-26.8l-37.4-37.4c8.2-4.4,17.2-6.6,26.2-6.6,48.8,0,73.8,59.3,39,94.1h0Z"/>
    </g>
  </g>
</svg>